<svg xmlns="http://www.w3.org/2000/svg" width="86" height="60" fill="none"><path fill="#161616" d="M15.73 27.804v8.391c0 .707-.26 1.222-.877 1.414-.455.128-.843.16-1.427.193v.997h8.24v-.997c-.616-.032-1.556-.13-2.109-.354-.583-.225-.877-.707-.877-1.416v-8.487c.39-.707 1.655-2.22 3.31-2.22-.031.162-.225.74-.225 1.03 0 1.093.616 1.544 1.654 1.544 1.103 0 1.817-.997 1.817-2.186 0-1.19-.974-2.123-2.175-2.123-1.362 0-2.92.803-4.314 2.571h-.065v-2.186l-.227-.225-10.017.257h.001c0-.546.033-1.158.033-1.64.161-4.918 1.167-6.526 3.212-6.526.258 0 .584.031.778.224 0 .483-.194 1.286-.194 1.769 0 1.093 1.135 1.446 1.881 1.446 1.135 0 1.752-1.061 1.752-1.672 0-1.382-1.006-2.83-3.44-2.83-1.654 0-3.44.547-4.769 1.961-1.59 1.672-2.207 3.923-2.207 6.591v.675H2.242v1.415h3.243v10.77c0 .707-.258 1.222-.874 1.414-.455.128-.844.16-1.427.193v.997h8.24v-.997c-.583-.032-1.622-.16-2.11-.354-.583-.225-.876-.707-.876-1.416v-10.61h4.024s3.268-.036 3.268 2.38v.007ZM26.413 38.799v-.997c.584-.032.973-.065 1.427-.193.616-.192.875-.707.875-1.414v-9.002c-.064-.675-.357-1.253-.875-1.608-.39-.257-1.33-.482-1.914-.514v-.966l5.515-.354.227.225v12.025c0 .706.292 1.221.876 1.446.487.193.843.32 1.427.354v.997h-7.559.001Zm3.504-19.065c-1.071 0-1.98-.901-1.98-1.962 0-1.06.91-2.024 1.98-2.024 1.2 0 2.043.868 2.043 1.897 0 1.124-.876 2.09-2.043 2.09v-.001ZM41.811 39.184c-4.996 0-7.331-3.6-7.331-7.94 0-3.955 2.627-7.717 7.008-7.717 4.38 0 6.196 2.959 6.196 6.303v.836H37.658c0 4.146 1.46 6.88 5.062 6.88 2.206 0 3.212-1.03 4.315-2.862l1.006.61c-1.168 2.284-3.439 3.892-6.229 3.892l-.001-.002Zm-.357-14.564c-2.076 0-3.698 1.897-3.796 4.919l6.911-.065c0-2.314-.583-4.854-3.114-4.854h-.001ZM58.218 38.798v-.996c.584-.033 1.07-.065 1.525-.193.617-.192.877-.707.877-1.414v-7.427c0-2.219-1.298-3.442-2.693-3.442-2.37 0-3.699 1.545-4.057 2.284v8.423c0 .707.293 1.158.877 1.416.487.224.974.32 1.526.354v.997h-7.657v-.997c.584-.033.973-.065 1.427-.193.616-.192.877-.707.877-1.414v-9.003c-.065-.674-.358-1.35-.877-1.703-.39-.257-1.006-.386-1.59-.418v-.966l5.19-.354.227.225v2.186h.066c1.232-1.19 2.465-2.636 5.256-2.636 3.017 0 4.412 2.025 4.412 5.081v7.458c0 .707.259 1.158.843 1.414.454.193.843.29 1.429.323v.997h-7.658v-.002ZM77.939 38.864l-.227-.225v-1.383l-.13-.031c-.713.739-2.271 1.992-4.315 1.992-3.795 0-6.943-3.118-6.943-8.038 0-4.501 3.6-7.652 7.43-7.652 2.043 0 3.536.74 3.925.933v-5.852c-.065-.675-.323-1.512-.843-1.864-.616-.419-1.914-.579-2.855-.643v-.932l6.424-.354.227.224v20.61c.033.771.324 1.22.843 1.576.39.256 1.33.288 1.915.32v.965l-5.451.355v-.001Zm-.26-11.639c-.357-1.061-1.427-2.571-3.665-2.571-2.466 0-4.38 2.571-4.38 6.88 0 3.119 1.362 6.077 4.737 6.077 1.557 0 2.465-.74 3.31-1.64v-8.746h-.002Z"/></svg>
