<svg xmlns="http://www.w3.org/2000/svg" width="266" height="81" fill="none"><path fill="#161616" d="M44.154 42.738v27.468c0 2.313-.85 3.999-2.87 4.629-1.489.419-2.76.525-4.672.63v3.263h26.976v-3.263c-2.017-.106-5.097-.422-6.905-1.158-1.911-.736-2.87-2.316-2.87-4.636V41.89c1.275-2.316 5.417-7.266 10.834-7.266-.103.528-.739 2.422-.739 3.369 0 3.58 2.018 5.055 5.417 5.055 3.61 0 5.947-3.263 5.947-7.157 0-3.893-3.187-6.948-7.119-6.948-4.458 0-9.559 2.63-14.124 8.416h-.213v-7.156l-.742-.736-32.79.842h.003c0-1.789.107-3.792.107-5.369.53-16.101 3.822-21.364 10.515-21.364.845 0 1.91.103 2.547.733 0 1.58-.636 4.21-.636 5.79 0 3.58 3.715 4.735 6.16 4.735 3.715 0 5.733-3.474 5.733-5.474C44.713 4.837 41.42.1 33.456.1c-5.418 0-11.261 1.788-15.613 6.417-5.207 5.474-7.225 12.842-7.225 21.575v2.211H0v4.63h10.618v35.257c0 2.313-.846 4-2.863 4.63-1.489.418-2.76.524-4.672.63v3.263H30.06v-3.263c-1.91-.106-5.31-.525-6.905-1.159-1.911-.735-2.87-2.316-2.87-4.635v-34.73h13.172s10.698-.12 10.698 7.79v.023ZM79.124 78.729v-3.263c1.911-.106 3.187-.212 4.672-.63 2.017-.63 2.863-2.317 2.863-4.63v-29.47c-.21-2.208-1.169-4.102-2.863-5.263-1.276-.842-4.356-1.577-6.267-1.683v-3.16l18.053-1.159.743.736v39.362c0 2.313.959 4 2.87 4.735 1.595.63 2.76 1.05 4.671 1.158v3.263H79.121l.003.004Zm11.47-62.41c-3.505 0-6.479-2.95-6.479-6.42 0-3.472 2.977-6.63 6.48-6.63 3.928 0 6.689 2.845 6.689 6.21 0 3.683-2.87 6.844-6.69 6.844v-.004ZM129.531 79.991c-16.355 0-24-11.785-24-25.993 0-12.947 8.601-25.26 22.941-25.26 14.341 0 20.284 9.683 20.284 20.63v2.736h-32.82c0 13.574 4.778 22.522 16.572 22.522 7.221 0 10.514-3.368 14.124-9.367l3.293 2c-3.823 7.473-11.258 12.736-20.391 12.736l-.003-.004Zm-1.169-47.677c-6.795 0-12.106 6.21-12.426 16.101l22.625-.21c0-7.576-1.911-15.891-10.195-15.891h-.004ZM183.237 78.728v-3.264c1.914-.105 3.506-.21 4.994-.63 2.018-.63 2.87-2.316 2.87-4.629V45.891c0-7.262-4.248-11.264-8.816-11.264-7.755 0-12.107 5.055-13.279 7.473v27.574c0 2.316.959 3.79 2.87 4.635 1.595.733 3.187 1.05 4.995 1.159v3.263h-25.065v-3.263c1.911-.106 3.186-.212 4.671-.63 2.018-.63 2.87-2.317 2.87-4.63v-29.47c-.213-2.208-1.172-4.419-2.87-5.577-1.275-.841-3.293-1.263-5.207-1.369v-3.16l16.994-1.159.742.736v7.156h.213c4.036-3.893 8.071-8.628 17.208-8.628 9.875 0 14.443 6.629 14.443 16.633v24.413c0 2.316.846 3.79 2.757 4.629 1.489.63 2.76.95 4.678 1.056v3.263h-25.068v-.003ZM247.794 78.94l-.743-.735v-4.527l-.426-.102c-2.334 2.418-7.435 6.523-14.124 6.523-12.422 0-22.728-10.209-22.728-26.313 0-14.736 11.787-25.05 24.32-25.05a28.914 28.914 0 0 1 12.852 3.055V12.635c-.213-2.211-1.059-4.95-2.76-6.104-2.018-1.37-6.267-1.894-9.346-2.105v-3.05L255.868.22l.743.732v67.464c.106 2.528 1.059 4 2.76 5.16 1.275.839 4.352.944 6.266 1.05v3.158l-17.843 1.161v-.003Zm-.849-38.098c-1.169-3.474-4.672-8.417-12-8.417-8.071 0-14.337 8.417-14.337 22.522 0 10.209 4.458 19.892 15.506 19.892 5.097 0 8.071-2.421 10.834-5.368v-28.63h-.003Z"/></svg>
